<?xml version="1.0" ?><svg viewBox="0 0 64 64" xmlns="http://www.w3.org/2000/svg"><g data-name="25-contact" id="_25-contact"><rect height="62" style="fill:#e36861" width="50" x="10" y="1"/><circle cx="38" cy="22" r="16" style="fill:#a8d7e4"/><path d="M38,24A10,10,0,0,0,28,34v.479a15.961,15.961,0,0,0,20,0V34A10,10,0,0,0,38,24Z" style="fill:#7bace6"/><rect height="14" rx="5" style="fill:#7bace6" width="10" x="33" y="12"/><rect height="12" rx="2" style="fill:#fcea81" transform="translate(-43 63) rotate(-90)" width="6" x="7" y="47"/><rect height="12" rx="2" style="fill:#fcea81" transform="translate(-29 49) rotate(-90)" width="6" x="7" y="33"/><rect height="12" rx="2" style="fill:#fcea81" transform="translate(-15 35) rotate(-90)" width="6" x="7" y="19"/><rect height="12" rx="2" style="fill:#fcea81" transform="translate(-1 21) rotate(-90)" width="6" x="7" y="5"/><rect height="6" style="fill:#d89670" width="26" x="25" y="42"/><rect height="6" style="fill:#d89670" width="6" x="25" y="52"/><rect height="6" style="fill:#d89670" width="16" x="35" y="52"/><path d="M60,0H10A1,1,0,0,0,9,1V7H6a3,3,0,0,0-3,3v2a3,3,0,0,0,3,3H9v6H6a3,3,0,0,0-3,3v2a3,3,0,0,0,3,3H9v6H6a3,3,0,0,0-3,3v2a3,3,0,0,0,3,3H9v6H6a3,3,0,0,0-3,3v2a3,3,0,0,0,3,3H9v6a1,1,0,0,0,1,1H60a1,1,0,0,0,1-1V1A1,1,0,0,0,60,0ZM5,12V10A1,1,0,0,1,6,9h8a1,1,0,0,1,1,1v2a1,1,0,0,1-1,1H6A1,1,0,0,1,5,12ZM5,26V24a1,1,0,0,1,1-1h8a1,1,0,0,1,1,1v2a1,1,0,0,1-1,1H6A1,1,0,0,1,5,26ZM5,40V38a1,1,0,0,1,1-1h8a1,1,0,0,1,1,1v2a1,1,0,0,1-1,1H6A1,1,0,0,1,5,40ZM5,54V52a1,1,0,0,1,1-1h8a1,1,0,0,1,1,1v2a1,1,0,0,1-1,1H6A1,1,0,0,1,5,54Zm54,8H11V57h3a3,3,0,0,0,3-3V52a3,3,0,0,0-3-3H11V43h3a3,3,0,0,0,3-3V38a3,3,0,0,0-3-3H11V29h3a3,3,0,0,0,3-3V24a3,3,0,0,0-3-3H11V15h3a3,3,0,0,0,3-3V10a3,3,0,0,0-3-3H11V2H59Z"/><path d="M38,39A17,17,0,1,0,21,22,17.019,17.019,0,0,0,38,39Zm-9-5.027a9,9,0,0,1,5.366-8.208,5.958,5.958,0,0,0,7.264,0A9,9,0,0,1,47,33.973a14.887,14.887,0,0,1-18,0ZM42,21a4,4,0,0,1-8,0V17a4,4,0,0,1,8,0ZM38,7A14.979,14.979,0,0,1,48.867,32.31a11,11,0,0,0-5.818-8.082A5.955,5.955,0,0,0,44,21V17a6,6,0,0,0-12,0v4a5.955,5.955,0,0,0,.951,3.228,11,11,0,0,0-5.818,8.082A14.979,14.979,0,0,1,38,7Z"/><path d="M51,41H25a1,1,0,0,0-1,1v6a1,1,0,0,0,1,1H51a1,1,0,0,0,1-1V42A1,1,0,0,0,51,41Zm-1,6H26V43H50Z"/><path d="M31,51H25a1,1,0,0,0-1,1v6a1,1,0,0,0,1,1h6a1,1,0,0,0,1-1V52A1,1,0,0,0,31,51Zm-1,6H26V53h4Z"/><path d="M51,51H35a1,1,0,0,0-1,1v6a1,1,0,0,0,1,1H47a1,1,0,0,0,0-2H36V53H50v5a1,1,0,0,0,2,0V52A1,1,0,0,0,51,51Z"/></g></svg>